#!OML:ASF E:\Style4\Style4.ASF
:FULLY-SPECIFIED
:DEGREES
3371
root -0.195005 17.5683 -1.43084 7.16333 15.6914 2.99751
lowerback 17.3342 5.01374 1.84991
upperback 8.74305 6.88629 -0.666522
thorax -0.00624364 3.55445 -2.87703
lowerneck 3.25624 -2.69315 -5.77253
upperneck 0.348227 -3.76557 4.17884
head -0.249496 -1.91255 2.34855
rclavicle -1.4551e-013 6.20208e-014
rhumerus 20.9057 14.8156 -73.2265
rradius 128.21
rwrist 9.83873
rhand 34.0678 -10.7308
rfingers 7.12502
rthumb 57.3221 -27.0453
lclavicle -1.4551e-013 6.20208e-014
lhumerus 32.5338 -13.4927 70.6617
lradius 131.364
lwrist -4.44824
lhand 20.5565 40.916
lfingers 7.12502
lthumb 45.0531 64.3946
rfemur -26.4645 -14.4871 17.9136
rtibia 42.0963
rfoot -20.8331 -22.6209
rtoes -6.59899
lfemur -29.008 -5.01029 -21.3641
ltibia 37.6076
lfoot -14.3736 5.41428
ltoes -16.1641
3372
root -0.210796 17.5565 -1.41697 7.12293 16.1633 3.06795
lowerback 17.2247 4.89728 1.57036
upperback 8.86494 6.69957 -0.46155
thorax 0.109107 3.45132 -2.46324
lowerneck 3.48479 -2.55499 -6.16101
upperneck 0.299818 -3.60785 4.10988
head -0.30713 -1.83498 2.40107
rclavicle -5.96354e-014 3.4191e-014
rhumerus 21.3035 15.3566 -72.9025
rradius 128.892
rwrist 9.04425
rhand 34.1301 -10.5795
rfingers 7.12502
rthumb 57.3769 -26.8472
lclavicle -5.96354e-014 3.4191e-014
lhumerus 31.4634 -13.4704 70.6293
lradius 131.403
lwrist -4.78826
lhand 20.3766 40.5829
lfingers 7.12502
lthumb 44.8857 64.1274
rfemur -26.4461 -14.7576 17.8952
rtibia 42.4157
rfoot -21.1015 -22.7377
rtoes -6.63955
lfemur -29.0562 -5.32526 -21.3549
ltibia 37.7826
lfoot -14.4129 5.24951
ltoes -16.0901
3373
root -0.224659 17.5388 -1.40658 7.05132 16.5813 3.09346
lowerback 17.0918 4.7066 1.2484
upperback 9.00292 6.41155 -0.174163
thorax 0.237932 3.29337 -1.92233
lowerneck 3.82221 -2.31561 -6.79668
upperneck 0.250438 -3.33472 4.04496
head -0.387455 -1.70026 2.50168
rclavicle 8.82604e-014 -1.59028e-014
rhumerus 21.9107 16.0986 -72.5124
rradius 129.525
rwrist 8.35641
rhand 33.8414 -10.221
rfingers 7.12502
rthumb 57.1234 -26.7038
lclavicle 8.82604e-014 -1.59028e-014
lhumerus 30.0339 -13.4198 70.6038
lradius 131.478
lwrist -5.23996
lhand 19.9683 40.5666
lfingers 7.12502
lthumb 44.5056 64.2583
rfemur -26.4712 -14.9769 17.9164
rtibia 42.81
rfoot -21.4099 -22.8339
rtoes -6.828
lfemur -29.1624 -5.57989 -21.3125
ltibia 38.0781
lfoot -14.5652 5.09962
ltoes -16.1616
3374
root -0.238023 17.5169 -1.39968 6.92516 16.9556 3.03581
lowerback 16.9973 4.47566 1.02379
upperback 9.15261 6.08552 0.101643
thorax 0.377104 3.11952 -1.44449
lowerneck 4.04258 -2.05226 -7.35124
upperneck 0.330924 -3.02438 3.9203
head -0.412556 -1.54646 2.56301
rclavicle 3.49861e-014 -3.73715e-014
rhumerus 22.6936 16.8137 -72.1747
rradius 130.104
rwrist 7.80358
rhand 33.22 -9.72184
rfingers 7.12502
rthumb 56.5763 -26.6555
lclavicle 3.49861e-014 -3.73715e-014
lhumerus 28.46 -13.2994 70.5266
lradius 131.59
lwrist -5.48151
lhand 19.8589 40.7636
lfingers 7.12502
lthumb 44.4036 64.4943
rfemur -26.5072 -15.1271 18.0179
rtibia 43.2603
rfoot -21.6733 -23.0034
rtoes -7.04613
lfemur -29.3082 -5.75299 -21.1956
ltibia 38.4848
lfoot -14.7794 4.95368
ltoes -16.1723
3375
root -0.249518 17.4924 -1.39428 6.83973 17.2787 3.01616
lowerback 16.8795 4.28971 0.799359
upperback 9.30994 5.81758 0.332053
thorax 0.549553 2.97543 -1.02126
lowerneck 4.19818 -1.84406 -7.77472
upperneck 0.445851 -2.77898 3.813
head -0.41419 -1.42539 2.60466
rclavicle 6.2816e-014 -3.97569e-014
rhumerus 23.5876 17.3985 -71.8096
rradius 130.638
rwrist 7.5807
rhand 31.964 -9.2887
rfingers 7.12502
rthumb 55.4635 -27.0867
lclavicle 6.2816e-014 -3.97569e-014
lhumerus 26.9346 -13.2851 70.5585
lradius 131.651
lwrist -5.72213
lhand 20.4494 41.0442
lfingers 7.12502
lthumb 44.9535 64.5621
rfemur -26.6011 -15.2272 18.0599
rtibia 43.7512
rfoot -22.0586 -23.0585
rtoes -6.48419
lfemur -29.5359 -5.87479 -21.1368
ltibia 38.9774
lfoot -14.9134 4.8008
ltoes -16.244
3376
root -0.25657 17.4686 -1.38913 6.76337 17.5379 3.05504
lowerback 16.8289 4.21364 0.715921
upperback 9.46831 5.71075 0.395825
thorax 0.727816 2.92114 -0.879692
lowerneck 4.2633 -1.76614 -7.84052
upperneck 0.57668 -2.68362 3.81063
head -0.389155 -1.37994 2.61474
rclavicle -2.38542e-014 -3.18055e-014
rhumerus 24.4538 17.5215 -71.5904
rradius 131.12
rwrist 7.58386
rhand 30.3987 -8.84092
rfingers 7.12502
rthumb 54.0651 -27.6349
lclavicle -2.38542e-014 -3.18055e-014
lhumerus 25.606 -13.8069 70.3553
lradius 131.62
lwrist -5.91355
lhand 21.0569 41.6493
lfingers 7.12502
lthumb 45.5183 64.9418
rfemur -26.7129 -15.3803 18.023
rtibia 44.2652
rfoot -22.3322 -23.113
rtoes -6.19571
lfemur -29.7527 -5.95022 -21.1663
ltibia 39.5186
lfoot -15.0551 4.59675
ltoes -16.1787
3377
root -0.261673 17.4416 -1.38789 6.62462 17.704 3.07387
lowerback 16.9607 4.24125 0.833458
upperback 9.63718 5.76552 0.305059
thorax 0.8642 2.95972 -1.04833
lowerneck 4.16926 -1.84959 -7.47196
upperneck 0.737129 -2.77142 3.79472
head -0.321086 -1.42456 2.53838
rclavicle 1.59823e-013 -5.80451e-014
rhumerus 25.3897 17.0323 -71.4802
rradius 131.52
rwrist 7.52172
rhand 28.7596 -8.44674
rfingers 7.12502
rthumb 52.5884 -28.1963
lclavicle 1.59823e-013 -5.80451e-014
lhumerus 24.598 -14.5895 69.9694
lradius 131.606
lwrist -5.50815
lhand 21.8086 42.7727
lfingers 7.12502
lthumb 46.216 65.7767
rfemur -26.8163 -15.4784 17.9887
rtibia 44.8035
rfoot -22.5862 -23.1883
rtoes -6.20136
lfemur -29.9286 -5.98238 -21.1957
ltibia 40.0848
lfoot -15.2825 4.50996
ltoes -16.4552
3378
root -0.266399 17.4151 -1.38885 6.4287 17.8137 3.05873
lowerback 17.1659 4.34548 1.06396
upperback 9.81214 5.9361 0.172909
thorax 0.990269 3.06275 -1.34553
lowerneck 4.08752 -2.02032 -6.9527
upperneck 0.881874 -2.97033 3.82018
head -0.255766 -1.52407 2.44962
rclavicle 4.69132e-014 -4.29375e-014
rhumerus 26.2577 16.2708 -71.3064
rradius 131.874
rwrist 7.4493
rhand 26.7747 -8.11974
rfingers 7.12502
rthumb 50.7854 -28.9201
lclavicle 4.69132e-014 -4.29375e-014
lhumerus 23.8853 -15.5504 69.6601
lradius 131.506
lwrist -5.26063
lhand 22.9359 43.9383
lfingers 7.12502
lthumb 47.2596 66.4893
rfemur -26.9049 -15.494 17.9801
rtibia 45.3554
rfoot -22.5457 -23.5305
rtoes -7.43336
lfemur -30.075 -6.00015 -21.1862
ltibia 40.6677
lfoot -15.5059 4.45086
ltoes -16.5835
3379
root -0.27019 17.3862 -1.39091 6.26181 17.8812 3.06434
lowerback 17.4787 4.43213 1.30662
upperback 9.88962 6.08527 0.0133163
thorax 0.962915 3.15415 -1.68986
lowerneck 4.11402 -2.15903 -6.59891
upperneck 1.0439 -3.14154 3.98866
head -0.201962 -1.61148 2.44068
rclavicle 4.77083e-014 -1.82882e-014
rhumerus 26.961 15.6917 -71.2231
rradius 132.187
rwrist 7.58024
rhand 24.7372 -7.70867
rfingers 7.12502
rthumb 48.9198 -29.4806
lclavicle 4.77083e-014 -1.82882e-014
lhumerus 23.1484 -16.6012 69.5033
lradius 131.364
lwrist -6.03226
lhand 24.6779 44.9859
lfingers 7.12502
lthumb 48.8652 66.7847
rfemur -27.0113 -15.5092 17.9442
rtibia 45.9155
rfoot -22.6012 -23.7015
rtoes -8.09534
lfemur -30.2549 -5.98317 -21.1996
ltibia 41.2844
lfoot -15.7308 4.36304
ltoes -16.8361
3380
root -0.274034 17.3542 -1.39618 6.11041 17.9206 3.06393
lowerback 17.5613 4.50246 1.34463
upperback 10.1098 6.18603 0.0183108
thorax 1.16622 3.21243 -1.71504
lowerneck 4.23693 -2.23285 -6.4194
upperneck 0.950399 -3.23785 4.00521
head -0.249673 -1.65931 2.41724
rclavicle 4.92986e-014 -6.36111e-015
rhumerus 27.9407 15.1685 -71.0132
rradius 132.386
rwrist 7.66528
rhand 23.2012 -7.32688
rfingers 7.12502
rthumb 47.5047 -29.7675
lclavicle 4.92986e-014 -6.36111e-015
lhumerus 22.5572 -17.2517 69.6667
lradius 131.322
lwrist -7.21317
lhand 27.5478 45.9867
lfingers 7.12502
lthumb 51.4894 66.3908
rfemur -27.1512 -15.5414 17.9197
rtibia 46.4882
rfoot -23.1667 -23.4725
rtoes -6.7134
lfemur -30.4694 -5.89426 -21.2154
ltibia 41.9126
lfoot -15.9376 4.2059
ltoes -16.9624
3381
root -0.276349 17.321 -1.40135 5.90408 17.9407 2.97614
lowerback 17.7966 4.49934 1.61111
upperback 10.2597 6.2232 -0.137733
thorax 1.25819 3.25232 -2.04116
lowerneck 4.24254 -2.2759 -6.04594
upperneck 1.01435 -3.27875 4.06747
head -0.232972 -1.67963 2.36908
rclavicle -7.95139e-015 1.59028e-014
rhumerus 28.839 14.5782 -71.2147
rradius 132.358
rwrist 7.63346
rhand 21.1192 -7.01629
rfingers 7.12502
rthumb 45.5762 -30.2852
lclavicle -7.95139e-015 1.59028e-014
lhumerus 22.168 -17.7852 69.519
lradius 131.282
lwrist -7.92133
lhand 30.5949 47.2201
lfingers 7.12502
lthumb 54.241 65.8939
rfemur -27.2736 -15.6657 17.9902
rtibia 47.0751
rfoot -23.6032 -23.2567
rtoes -6.04383
lfemur -30.6526 -5.76768 -21.1511
ltibia 42.5525
lfoot -16.1568 4.05044
ltoes -16.9554
